<?xml version="1.0" encoding="utf-8"?>
<!-- Generator: Adobe Illustrator 18.0.0, SVG Export Plug-In . SVG Version: 6.00 Build 0)  -->
<!DOCTYPE svg PUBLIC "-//W3C//DTD SVG 1.1//EN" "http://www.w3.org/Graphics/SVG/1.1/DTD/svg11.dtd">
<svg version="1.1" id="Layer_1" xmlns="http://www.w3.org/2000/svg" xmlns:xlink="http://www.w3.org/1999/xlink" x="0px" y="0px"
	 viewBox="2.6 87.3 160.9 24.2" enable-background="new 2.6 87.3 160.9 24.2" xml:space="preserve">
<g>
	<path d="M2.6,87.3h3.4l12.5,19.3h0.1V87.3h3v23.8h-3.5L5.6,92H5.6v19.1h-3V87.3z"/>
	<path d="M26.7,87.3h4.3l7.5,20l7.5-20h4.3v23.8h-3V91.3h-0.1l-7.4,19.8h-2.7l-7.4-19.8h-0.1v19.8h-3V87.3z"/>
	<path d="M70.4,89.9h-7.9v-2.7h19v2.7h-7.9v21.1h-3.2V89.9z"/>
	<path d="M83.7,87.3h2.8v9.1h0.1c0.9-2.1,3.4-2.9,5.4-2.9c4.5,0,5.9,2.6,5.9,6.3v11.3h-2.8V99.4c0-2.1-1.3-3.5-3.5-3.5
		c-3.4,0-5.1,2.3-5.1,5.4v9.7h-2.8V87.3z"/>
	<path d="M116.9,105.6c-0.8,3.8-3.5,5.9-7.4,5.9c-5.5,0-8.1-3.8-8.3-9.1c0-5.2,3.4-9,8.1-9c6.1,0,8,5.7,7.8,9.9h-12.9
		c-0.1,3,1.6,5.7,5.4,5.7c2.3,0,4-1.1,4.5-3.4H116.9z M114.2,100.8c-0.1-2.7-2.2-4.9-5-4.9c-3,0-4.7,2.2-4.9,4.9H114.2z"/>
	<path d="M120.1,93.8h2.7v2.5h0.1c1.3-1.9,3.2-2.9,5.6-2.9c2.1,0,4,0.8,4.7,2.9c1.2-1.8,3.2-2.9,5.4-2.9c3.4,0,5.7,1.4,5.7,5v12.6
		h-2.8V99.8c0-2.1-0.6-3.8-3.3-3.8c-2.7,0-4.5,1.7-4.5,4.4v10.7h-2.8V99.8c0-2.2-0.7-3.8-3.2-3.8c-3.4,0-4.6,3.1-4.6,4.4v10.7h-2.8
		V93.8z"/>
	<path d="M163.2,105.6c-0.8,3.8-3.5,5.9-7.4,5.9c-5.5,0-8.1-3.8-8.3-9.1c0-5.2,3.4-9,8.1-9c6.1,0,8,5.7,7.8,9.9h-12.9
		c-0.1,3,1.6,5.7,5.4,5.7c2.3,0,4-1.1,4.5-3.4H163.2z M160.5,100.8c-0.1-2.7-2.2-4.9-5-4.9c-3,0-4.7,2.2-4.9,4.9H160.5z"/>
</g>
</svg>
