<?xml version="1.0" encoding="UTF-8" standalone="no"?> <svg width="24" height="24" viewBox="0 0 24 24" fill="none" xmlns="http://www.w3.org/2000/svg">
<path fill-rule="evenodd" clip-rule="evenodd" d="M12 2C8.13401 2 5 5.13401 5 9C5 10.8472 5.71414 12.5253 6.88327 13.777C8.1622 15.1462 9.98061 16 12 16C14.0194 16 15.8378 15.1462 17.1167 13.777C18.2859 12.5253 19 10.8472 19 9C19 5.13401 15.866 2 12 2ZM3 9C3 4.02944 7.02944 0 12 0C16.9706 0 21 4.02944 21 9C21 11.1767 20.2261 13.1745 18.94 14.7306L20.508 21.3163C20.8903 22.922 19.2729 24.2734 17.7608 23.6119L12 21.0915L6.23923 23.6119C4.72708 24.2734 3.10968 22.922 3.49197 21.3163L5.05999 14.7306C3.77385 13.1745 3 11.1767 3 9ZM6.74119 16.3044L5.43759 21.7795L11.1984 19.2592C11.7094 19.0356 12.2906 19.0356 12.8016 19.2592L18.5624 21.7795L17.2588 16.3044C15.7798 17.3708 13.963 18 12 18C10.037 18 8.22016 17.3708 6.74119 16.3044ZM16.7071 6.29289C17.0976 6.68342 17.0976 7.31658 16.7071 7.70711L12.7071 11.7071C12.3166 12.0976 11.6834 12.0976 11.2929 11.7071L9.29289 9.70711C8.90237 9.31658 8.90237 8.68342 9.29289 8.29289C9.68342 7.90237 10.3166 7.90237 10.7071 8.29289L12 9.58579L15.2929 6.29289C15.6834 5.90237 16.3166 5.90237 16.7071 6.29289Z" fill="#293644"/>
</svg>
