<?xml version="1.0" encoding="UTF-8" standalone="no"?> <svg width="101" height="101" viewBox="0 0 101 101" fill="none" xmlns="http://www.w3.org/2000/svg">
<path d="M93.5 53H86V40.5C86 40.1022 85.842 39.7206 85.5607 39.4393C85.2794 39.158 84.8978 39 84.5 39H61V26.5C61 26.1022 60.842 25.7206 60.5607 25.4393C60.2794 25.158 59.8978 25 59.5 25H8.5C8.10218 25 7.72064 25.158 7.43934 25.4393C7.15804 25.7206 7 26.1022 7 26.5V73.5C7 73.8978 7.15804 74.2794 7.43934 74.5607C7.72064 74.842 8.10218 75 8.5 75H19.92C20.1242 76.8744 21.0134 78.6073 22.417 79.8662C23.8205 81.1252 25.6396 81.8215 27.525 81.8215C29.4104 81.8215 31.2295 81.1252 32.633 79.8662C34.0366 78.6073 34.9258 76.8744 35.13 75H68.68C68.8843 76.8769 69.7747 78.6122 71.1801 79.873C72.5855 81.1337 74.407 81.8309 76.295 81.8309C78.183 81.8309 80.0045 81.1337 81.4099 79.873C82.8153 78.6122 83.7057 76.8769 83.91 75H93.5C93.8978 75 94.2794 74.842 94.5607 74.5607C94.842 74.2794 95 73.8978 95 73.5V54.5C95 54.1022 94.842 53.7206 94.5607 53.4393C94.2794 53.158 93.8978 53 93.5 53V53ZM27.5 78.84C26.5771 78.844 25.6738 78.5738 24.9046 78.0637C24.1354 77.5536 23.535 76.8266 23.1795 75.9749C22.8241 75.1232 22.7295 74.1851 22.9079 73.2795C23.0862 72.374 23.5294 71.5418 24.1813 70.8885C24.8333 70.2352 25.6645 69.7901 26.5696 69.6098C27.4748 69.4295 28.4131 69.5221 29.2656 69.8757C30.1181 70.2294 30.8464 70.8282 31.3581 71.5963C31.8698 72.3643 32.142 73.2671 32.14 74.19C32.1375 75.4139 31.6536 76.5876 30.7929 77.4576C29.9322 78.3277 28.7638 78.8242 27.54 78.84H27.5ZM27.5 66.53C25.858 66.5402 24.2625 67.0772 22.9485 68.0618C21.6344 69.0465 20.671 70.4269 20.2 72H10V28H58V72H34.86C34.3894 70.4228 33.4234 69.0391 32.105 68.0539C30.7866 67.0687 29.1859 66.5344 27.54 66.53H27.5ZM76.29 78.84C75.3679 78.84 74.4666 78.5664 73.7 78.0539C72.9335 77.5415 72.3362 76.8131 71.9838 75.961C71.6314 75.1089 71.5397 74.1714 71.7203 73.2672C71.9009 72.363 72.3457 71.5327 72.9984 70.8813C73.6511 70.23 74.4824 69.787 75.387 69.6083C76.2916 69.4296 77.2289 69.5234 78.0802 69.8776C78.9316 70.2318 79.6587 70.8307 80.1695 71.5983C80.6804 72.366 80.952 73.2679 80.95 74.19C80.9473 75.4242 80.4552 76.6069 79.5816 77.4787C78.708 78.3504 77.5242 78.84 76.29 78.84ZM92 72H83.63C83.1506 70.4338 82.1812 69.0628 80.8644 68.0888C79.5476 67.1147 77.9529 66.589 76.315 66.589C74.6771 66.589 73.0824 67.1147 71.7656 68.0888C70.4488 69.0628 69.4794 70.4338 69 72H61V42H83V54.5C83 54.8978 83.158 55.2794 83.4393 55.5607C83.7206 55.842 84.1022 56 84.5 56H92V72Z" fill="black" stroke="black" stroke-width="2.2"/>
<path d="M16.5 42.9997H47L42 47.9997C41.8526 48.137 41.7344 48.3026 41.6524 48.4866C41.5705 48.6706 41.5264 48.8693 41.5228 49.0707C41.5193 49.2721 41.5563 49.4721 41.6318 49.6589C41.7072 49.8457 41.8195 50.0154 41.9619 50.1578C42.1044 50.3002 42.274 50.4125 42.4608 50.488C42.6476 50.5634 42.8476 50.6005 43.049 50.5969C43.2505 50.5933 43.4491 50.5493 43.6331 50.4673C43.8171 50.3853 43.9827 50.2671 44.12 50.1197L50.85 43.3897C51.1309 43.1085 51.2887 42.7272 51.2887 42.3297C51.2887 41.9322 51.1309 41.551 50.85 41.2697L44.12 34.5397C43.9782 34.4005 43.8103 34.2906 43.626 34.2163C43.4417 34.142 43.2446 34.1047 43.0459 34.1065C42.8471 34.1084 42.6507 34.1493 42.4679 34.2271C42.285 34.3049 42.1192 34.4179 41.98 34.5597C41.8408 34.7015 41.7309 34.8694 41.6566 35.0537C41.5822 35.238 41.5449 35.4351 41.5468 35.6339C41.5486 35.8326 41.5896 36.029 41.6674 36.2119C41.7452 36.3947 41.8582 36.5605 42 36.6997L45.3 39.9997H16.5C16.1022 39.9997 15.7206 40.1578 15.4393 40.4391C15.158 40.7204 15 41.1019 15 41.4997C15 41.8975 15.158 42.2791 15.4393 42.5604C15.7206 42.8417 16.1022 42.9997 16.5 42.9997Z" fill="black" stroke="black" stroke-width="2.2"/>
<path d="M49 57.5004C49 57.1025 48.8419 56.721 48.5606 56.4397C48.2793 56.1584 47.8978 56.0004 47.5 56.0004H17.1L22 51.1104C22.1385 50.9699 22.248 50.8034 22.3222 50.6206C22.3965 50.4378 22.434 50.2421 22.4326 50.0448C22.4312 49.8474 22.3909 49.6523 22.3141 49.4706C22.2373 49.2888 22.1255 49.1239 21.985 48.9854C21.8445 48.8468 21.678 48.7373 21.4952 48.6631C21.3123 48.5889 21.1167 48.5514 20.9194 48.5528C20.722 48.5542 20.5269 48.5944 20.3451 48.6712C20.1634 48.748 19.9985 48.8599 19.86 49.0004L13.13 55.7304C12.8491 56.0116 12.6913 56.3929 12.6913 56.7904C12.6913 57.1879 12.8491 57.5691 13.13 57.8504L19.86 64.5804C20.1424 64.8642 20.526 65.0241 20.9264 65.025C21.3268 65.026 21.7112 64.8678 21.995 64.5854C22.2787 64.3029 22.4387 63.9193 22.4396 63.5189C22.4406 63.1185 22.2824 62.7342 22 62.4504L18.54 59.0004H47.54C47.9308 58.9899 48.3021 58.8273 48.5749 58.5471C48.8476 58.267 49.0001 57.8914 49 57.5004V57.5004Z" fill="black" stroke="black" stroke-width="2.2"/>
</svg>
